<svg data-v-423bf9ae="" xmlns="http://www.w3.org/2000/svg" viewBox="0 0 507 111" class="iconLeftSlogan"><!----><!----><!----><g data-v-423bf9ae="" id="31dda8f9-f512-4358-84d8-e71ef6e2668d" fill="#2D3826" transform="matrix(5.352260581326856,0,0,5.352260581326856,134.67816072838863,-26.681020189355422)"><path d="M11.68 9.51L11.68 9.51L11.68 9.51Q11.73 9.31 11.77 9.03L11.77 9.03L11.77 9.03Q11.82 8.75 11.83 8.45L11.83 8.45L11.83 8.45Q11.84 8.15 11.83 7.84L11.83 7.84L11.83 7.84Q11.82 7.53 11.76 7.29L11.76 7.29L11.76 7.29Q11.65 6.85 11.36 6.49L11.36 6.49L11.36 6.49Q11.07 6.13 10.44 5.84L10.44 5.84L10.44 5.84Q10.12 5.67 9.70 5.54L9.70 5.54L9.70 5.54Q9.28 5.40 8.82 5.30L8.82 5.30L8.82 5.30Q8.36 5.19 7.88 5.12L7.88 5.12L7.88 5.12Q7.39 5.05 6.93 5.01L6.93 5.01L6.93 5.01Q6.27 4.96 5.48 5.01L5.48 5.01L5.48 5.01Q4.69 5.07 4.03 5.36L4.03 5.36L4.03 5.36Q3.00 5.82 2.13 6.50L2.13 6.50L2.13 6.50Q1.26 7.17 0.62 7.96L0.62 7.96L0.62 7.96Q-0.03 8.75-0.45 9.60L-0.45 9.60L-0.45 9.60Q-0.87 10.46-1.02 11.30L-1.02 11.30L-1.02 11.30Q-1.18 12.14-1.04 12.90L-1.04 12.90L-1.04 12.90Q-0.90 13.66-0.43 14.27L-0.43 14.27L-0.43 14.27Q-0.18 14.66 0.31 14.99L0.31 14.99L0.31 14.99Q0.80 15.32 1.33 15.51L1.33 15.51L1.33 15.51Q2.76 15.96 4.37 16.10L4.37 16.10L4.37 16.10Q6.17 16.30 7.67 15.72L7.67 15.72L7.67 15.72Q8.78 15.26 9.70 14.42L9.70 14.42L9.70 14.42Q10.63 13.58 11.27 12.39L11.27 12.39L11.27 12.39Q11.44 12.04 11.41 11.82L11.41 11.82L11.41 11.82Q11.38 11.59 11.03 11.30L11.03 11.30L11.03 11.30Q10.84 11.14 10.63 10.96L10.63 10.96L10.63 10.96Q10.42 10.78 10.16 10.63L10.16 10.63L10.16 10.63Q9.81 10.39 9.41 10.32L9.41 10.32L9.41 10.32Q9.00 10.25 8.34 10.30L8.34 10.30L8.34 10.30Q7.78 10.36 7.02 10.42L7.02 10.42L7.02 10.42Q6.26 10.49 5.54 10.58L5.54 10.58L5.54 10.58Q5.18 10.63 4.87 10.65L4.87 10.65L4.87 10.65Q4.55 10.68 4.34 10.74L4.34 10.74L4.34 10.74Q4.13 10.79 4.04 10.89L4.04 10.89L4.04 10.89Q3.95 10.98 4.03 11.14L4.03 11.14L4.03 11.14Q4.38 11.86 5.02 12.17L5.02 12.17L5.02 12.17Q5.66 12.49 6.83 12.45L6.83 12.45L6.83 12.45Q6.52 12.88 6.17 13.27L6.17 13.27L6.17 13.27Q5.81 13.65 5.43 13.92L5.43 13.92L5.43 13.92Q5.05 14.18 4.67 14.31L4.67 14.31L4.67 14.31Q4.28 14.43 3.91 14.35L3.91 14.35L3.91 14.35Q3.49 14.25 3.26 13.85L3.26 13.85L3.26 13.85Q3.04 13.45 3.02 12.89L3.02 12.89L3.02 12.89Q3.00 12.32 3.16 11.66L3.16 11.66L3.16 11.66Q3.32 11.00 3.67 10.40L3.67 10.40L3.67 10.40Q4.03 9.67 4.54 9.02L4.54 9.02L4.54 9.02Q5.04 8.36 5.57 7.88L5.57 7.88L5.57 7.88Q6.10 7.39 6.61 7.13L6.61 7.13L6.61 7.13Q7.11 6.86 7.49 6.93L7.49 6.93L7.49 6.93Q7.67 6.96 7.74 7.11L7.74 7.11L7.74 7.11Q7.81 7.27 7.88 7.48L7.88 7.48L7.88 7.48Q7.91 7.59 7.93 7.71L7.93 7.71L7.93 7.71Q7.95 7.83 7.95 7.95L7.95 7.95L7.95 7.95Q7.95 8.08 7.97 8.19L7.97 8.19L7.97 8.19Q7.98 8.30 8.01 8.41L8.01 8.41L8.01 8.41Q8.12 9.02 8.76 9.39L8.76 9.39L8.76 9.39Q9.39 9.77 10.72 9.88L10.72 9.88L10.72 9.88Q11.20 9.91 11.38 9.83L11.38 9.83L11.38 9.83Q11.56 9.74 11.68 9.51ZM21.46 15.20L21.46 15.20L21.46 15.20Q21.77 15.16 21.93 15.12L21.93 15.12L21.93 15.12Q22.09 15.08 22.14 15.02L22.14 15.02L22.14 15.02Q22.19 14.97 22.16 14.88L22.16 14.88L22.16 14.88Q22.13 14.78 22.05 14.63L22.05 14.63L22.05 14.63Q21.95 14.39 21.79 14.14L21.79 14.14L21.79 14.14Q21.63 13.89 21.36 13.65L21.36 13.65L21.36 13.65Q21.11 13.40 20.81 13.32L20.81 13.32L20.81 13.32Q20.51 13.24 19.98 13.27L19.98 13.27L19.98 13.27Q19.05 13.31 18.25 13.37L18.25 13.37L18.25 13.37Q17.44 13.43 16.53 13.52L16.53 13.52L16.53 13.52Q16.84 12.63 17.21 11.68L17.21 11.68L17.21 11.68Q17.57 10.72 17.95 9.80L17.95 9.80L17.95 9.80Q18.33 8.88 18.70 8.02L18.70 8.02L18.70 8.02Q19.07 7.17 19.40 6.48L19.40 6.48L19.40 6.48Q19.56 6.20 19.45 6.04L19.45 6.04L19.45 6.04Q19.33 5.88 18.84 5.68L18.84 5.68L18.84 5.68Q18.35 5.49 17.71 5.33L17.71 5.33L17.71 5.33Q17.07 5.17 16.51 5.08L16.51 5.08L16.51 5.08Q15.97 4.98 15.69 5.05L15.69 5.05L15.69 5.05Q15.40 5.11 15.20 5.42L15.20 5.42L15.20 5.42Q14.92 5.99 14.63 6.70L14.63 6.70L14.63 6.70Q14.34 7.41 14.05 8.19L14.05 8.19L14.05 8.19Q13.76 8.97 13.49 9.79L13.49 9.79L13.49 9.79Q13.22 10.60 12.99 11.36L12.99 11.36L12.99 11.36Q12.75 12.12 12.59 12.80L12.59 12.80L12.59 12.80Q12.42 13.48 12.32 14L12.32 14L12.32 14Q12.22 14.34 12.38 14.58L12.38 14.58L12.38 14.58Q12.54 14.83 12.89 15.02L12.89 15.02L12.89 15.02Q13.36 15.27 13.63 15.44L13.63 15.44L13.63 15.44Q13.90 15.60 14.25 15.75L14.25 15.75L14.25 15.75Q14.39 15.82 14.55 15.88L14.55 15.88L14.55 15.88Q14.71 15.93 14.93 15.97L14.93 15.97L14.93 15.97Q15.15 16.00 15.46 15.99L15.46 15.99L15.46 15.99Q15.78 15.97 16.23 15.89L16.23 15.89L16.23 15.89Q17.46 15.72 18.81 15.55L18.81 15.55L18.81 15.55Q20.16 15.37 21.46 15.20ZM27.37 15.96L27.37 15.96L27.37 15.96Q28.14 16.09 28.77 16.11L28.77 16.11L28.77 16.11Q29.40 16.13 29.92 16.07L29.92 16.07L29.92 16.07Q30.44 16.02 30.85 15.90L30.85 15.90L30.85 15.90Q31.26 15.79 31.63 15.64L31.63 15.64L31.63 15.64Q32.51 15.25 33.22 14.43L33.22 14.43L33.22 14.43Q33.94 13.61 34.50 12.43L34.50 12.43L34.50 12.43Q35.07 11.26 35.50 9.77L35.50 9.77L35.50 9.77Q35.94 8.27 36.27 6.52L36.27 6.52L36.27 6.52Q36.32 6.38 36.31 6.28L36.31 6.28L36.31 6.28Q36.30 6.17 36.23 6.08L36.23 6.08L36.23 6.08Q36.16 5.99 36.02 5.92L36.02 5.92L36.02 5.92Q35.87 5.84 35.60 5.73L35.60 5.73L35.60 5.73Q35.07 5.53 34.40 5.38L34.40 5.38L34.40 5.38Q33.73 5.24 33.19 5.14L33.19 5.14L33.19 5.14Q32.63 5.05 32.35 5.12L32.35 5.12L32.35 5.12Q32.06 5.19 31.96 5.52L31.96 5.52L31.96 5.52Q31.81 6.22 31.59 7.15L31.59 7.15L31.59 7.15Q31.37 8.08 31.09 9.07L31.09 9.07L31.09 9.07Q30.81 10.05 30.49 11.00L30.49 11.00L30.49 11.00Q30.17 11.94 29.81 12.69L29.81 12.69L29.81 12.69Q29.44 13.44 29.05 13.89L29.05 13.89L29.05 13.89Q28.66 14.34 28.24 14.32L28.24 14.32L28.24 14.32Q28 14.31 27.86 14.22L27.86 14.22L27.86 14.22Q27.72 14.14 27.65 13.98L27.65 13.98L27.65 13.98Q27.58 13.82 27.55 13.58L27.55 13.58L27.55 13.58Q27.51 13.34 27.47 13.01L27.47 13.01L27.47 13.01Q27.43 11.97 25.19 11.38L25.19 11.38L25.19 11.38Q24.51 11.19 24.21 11.40L24.21 11.40L24.21 11.40Q23.90 11.61 23.74 12.05L23.74 12.05L23.74 12.05Q23.58 12.66 23.60 13.13L23.60 13.13L23.60 13.13Q23.62 13.59 23.90 14.04L23.90 14.04L23.90 14.04Q24.07 14.36 24.33 14.65L24.33 14.65L24.33 14.65Q24.60 14.94 25.01 15.19L25.01 15.19L25.01 15.19Q25.42 15.44 26.00 15.64L26.00 15.64L26.00 15.64Q26.57 15.83 27.37 15.96ZM42.35 5.88L42.35 5.88L42.35 5.88Q41.86 5.68 41.22 5.51L41.22 5.51L41.22 5.51Q40.57 5.33 40.01 5.25L40.01 5.25L40.01 5.25Q39.45 5.15 39.18 5.22L39.18 5.22L39.18 5.22Q38.91 5.29 38.75 5.60L38.75 5.60L38.75 5.60Q38.53 6.12 38.28 6.86L38.28 6.86L38.28 6.86Q38.02 7.60 37.76 8.44L37.76 8.44L37.76 8.44Q37.49 9.28 37.24 10.18L37.24 10.18L37.24 10.18Q36.99 11.07 36.78 11.90L36.78 11.90L36.78 11.90Q36.57 12.73 36.41 13.43L36.41 13.43L36.41 13.43Q36.25 14.14 36.19 14.62L36.19 14.62L36.19 14.62Q36.12 14.98 36.26 15.18L36.26 15.18L36.26 15.18Q36.40 15.39 36.86 15.54L36.86 15.54L36.86 15.54Q37.31 15.69 37.79 15.79L37.79 15.79L37.79 15.79Q38.28 15.89 38.81 15.99L38.81 15.99L38.81 15.99Q39.34 16.07 39.52 16.00L39.52 16.00L39.52 16.00Q39.70 15.93 39.79 15.69L39.79 15.69L39.79 15.69Q39.97 15.08 40.21 14.32L40.21 14.32L40.21 14.32Q40.45 13.55 40.72 12.73L40.72 12.73L40.72 12.73Q40.99 11.90 41.29 11.05L41.29 11.05L41.29 11.05Q41.58 10.19 41.87 9.40L41.87 9.40L41.87 9.40Q42.17 8.61 42.45 7.91L42.45 7.91L42.45 7.91Q42.73 7.21 42.97 6.69L42.97 6.69L42.97 6.69Q43.02 6.55 43.04 6.44L43.04 6.44L43.04 6.44Q43.05 6.33 42.99 6.24L42.99 6.24L42.99 6.24Q42.92 6.15 42.77 6.06L42.77 6.06L42.77 6.06Q42.62 5.98 42.35 5.88ZM57.39 6.72L57.39 6.72L57.39 6.72Q57.54 6.47 57.51 6.28L57.51 6.28L57.51 6.28Q57.47 6.09 57.29 5.94L57.29 5.94L57.29 5.94Q57.11 5.80 56.81 5.67L56.81 5.67L56.81 5.67Q56.52 5.54 56.15 5.42L56.15 5.42L56.15 5.42Q55.80 5.29 55.47 5.19L55.47 5.19L55.47 5.19Q55.13 5.10 54.84 5.08L54.84 5.08L54.84 5.08Q54.54 5.05 54.32 5.12L54.32 5.12L54.32 5.12Q54.10 5.19 53.97 5.39L53.97 5.39L53.97 5.39Q52.88 7.15 51.72 9.07L51.72 9.07L51.72 9.07Q50.55 10.99 49.25 12.85L49.25 12.85L49.25 12.85Q49.07 11.91 48.92 11.00L48.92 11.00L48.92 11.00Q48.76 10.08 48.63 9.24L48.63 9.24L48.63 9.24Q48.50 8.40 48.38 7.68L48.38 7.68L48.38 7.68Q48.27 6.96 48.17 6.40L48.17 6.40L48.17 6.40Q48.05 5.68 46.89 5.43L46.89 5.43L46.89 5.43Q46.40 5.32 45.97 5.27L45.97 5.27L45.97 5.27Q45.54 5.22 45.01 5.22L45.01 5.22L45.01 5.22Q44.74 5.22 44.59 5.25L44.59 5.25L44.59 5.25Q44.44 5.28 44.36 5.34L44.36 5.34L44.36 5.34Q44.28 5.40 44.26 5.51L44.26 5.51L44.26 5.51Q44.24 5.61 44.24 5.75L44.24 5.75L44.24 5.75Q44.42 8.09 44.77 10.20L44.77 10.20L44.77 10.20Q45.12 12.31 45.68 14.11L45.68 14.11L45.68 14.11Q45.74 14.28 45.86 14.46L45.86 14.46L45.86 14.46Q45.98 14.64 46.17 14.83L46.17 14.83L46.17 14.83Q46.37 15.02 46.64 15.18L46.64 15.18L46.64 15.18Q46.91 15.34 47.28 15.47L47.28 15.47L47.28 15.47Q47.95 15.69 48.57 15.83L48.57 15.83L48.57 15.83Q49.18 15.97 49.90 16.11L49.90 16.11L49.90 16.11Q50.62 16.25 51.00 16.16L51.00 16.16L51.00 16.16Q51.38 16.07 51.69 15.72L51.69 15.72L51.69 15.72Q52.12 15.15 52.65 14.40L52.65 14.40L52.65 14.40Q53.17 13.65 53.73 12.82L53.73 12.82L53.73 12.82Q54.29 11.98 54.85 11.12L54.85 11.12L54.85 11.12Q55.41 10.25 55.90 9.44L55.90 9.44L55.90 9.44Q56.39 8.62 56.78 7.92L56.78 7.92L56.78 7.92Q57.16 7.22 57.39 6.72ZM59.57 5.84L59.57 5.84L57.23 13.93L57.23 13.93Q57.16 14.29 57.33 14.56L57.33 14.56L57.33 14.56Q57.50 14.83 57.85 15.02L57.85 15.02L57.85 15.02Q58.24 15.27 58.55 15.44L58.55 15.44L58.55 15.44Q58.86 15.60 59.21 15.75L59.21 15.75L59.21 15.75Q59.35 15.82 59.52 15.88L59.52 15.88L59.52 15.88Q59.70 15.93 59.92 15.96L59.92 15.96L59.92 15.96Q60.14 15.99 60.45 15.98L60.45 15.98L60.45 15.98Q60.75 15.97 61.17 15.90L61.17 15.90L61.17 15.90Q62.40 15.75 63.75 15.57L63.75 15.57L63.75 15.57Q65.10 15.39 66.40 15.22L66.40 15.22L66.40 15.22Q66.93 15.15 67.03 15.04L67.03 15.04L67.03 15.04Q67.13 14.94 67.02 14.66L67.02 14.66L67.02 14.66Q66.86 14.41 66.72 14.17L66.72 14.17L66.72 14.17Q66.57 13.93 66.32 13.66L66.32 13.66L66.32 13.66Q66.11 13.43 65.79 13.34L65.79 13.34L65.79 13.34Q65.46 13.26 64.93 13.29L64.93 13.29L64.93 13.29Q63.94 13.33 63.08 13.39L63.08 13.39L63.08 13.39Q62.22 13.45 61.29 13.57L61.29 13.57L61.29 13.57Q61.46 13.20 61.61 12.82L61.61 12.82L61.61 12.82Q61.75 12.43 61.91 12.03L61.91 12.03L61.91 12.03Q63.04 11.87 64.25 11.74L64.25 11.74L64.25 11.74Q65.46 11.61 66.65 11.47L66.65 11.47L66.65 11.47Q67.19 11.40 67.31 11.30L67.31 11.30L67.31 11.30Q67.42 11.20 67.27 10.91L67.27 10.91L67.27 10.91Q67.16 10.65 67.02 10.42L67.02 10.42L67.02 10.42Q66.88 10.18 66.63 9.93L66.63 9.93L66.63 9.93Q66.42 9.69 66.11 9.61L66.11 9.61L66.11 9.61Q65.80 9.53 65.27 9.55L65.27 9.55L65.27 9.55Q64.64 9.56 64.08 9.58L64.08 9.58L64.08 9.58Q63.52 9.60 62.93 9.66L62.93 9.66L62.93 9.66Q63.22 9.03 63.47 8.46L63.47 8.46L63.47 8.46Q63.71 7.88 63.98 7.36L63.98 7.36L63.98 7.36Q65.28 7.25 66.45 7.17L66.45 7.17L66.45 7.17Q67.62 7.08 68.71 7.01L68.71 7.01L68.71 7.01Q69.24 6.97 69.38 6.87L69.38 6.87L69.38 6.87Q69.52 6.76 69.43 6.47L69.43 6.47L69.43 6.47Q69.31 6.22 69.20 6.01L69.20 6.01L69.20 6.01Q69.09 5.80 68.84 5.53L68.84 5.53L68.84 5.53Q68.53 5.04 67.52 5.05L67.52 5.05L67.52 5.05Q66.44 5.08 65.37 5.16L65.37 5.16L65.37 5.16Q64.29 5.24 63.26 5.35L63.26 5.35L63.26 5.35Q62.23 5.46 61.29 5.59L61.29 5.59L61.29 5.59Q60.35 5.71 59.57 5.84Z" style="transform: translateY(2px)"></path></g><!----><g data-v-423bf9ae="" id="322ed18b-96a8-426e-bd43-aee0147d81fa" transform="matrix(1.109477742513021,0,0,1.109477742513021,-1.5360840534074711,0.6076612490694941)" stroke="none" fill="#7FD1AE"><path d="M85.356 12.044C75.266 2.415 60.536 0 50.45 0h-.039C40.325 0 25.596 2.415 15.504 12.044 5.418 21.675 1.416 31.275 1.416 43.678c0 12.406 7.758 20.719 14.812 22.893 7.45 2.3 16.42-.481 16.42-9.418 0-4.523-2.416-7.445-5.846-7.445-1.667 0-3.886.884-5.298 2.696a21.337 21.337 0 0 0-4.956-4.402c.342-.941.791-1.853 1.349-2.731 1.058 1.225 2.673 3.305 3.881 5.788.366-.526.621-.781 1.092-1.234a29.636 29.636 0 0 0-3.77-6.178 15.846 15.846 0 0 1 2.168-2.099 33.882 33.882 0 0 1 2.741 7.642s1.009-.754 1.538-1.084a33.378 33.378 0 0 0-2.838-7.595 19.206 19.206 0 0 1 2.331-1.288c.57 1.531 1.453 4.41 1.832 8.313.558-.284 1.128-.402 1.701-.638-.435-3.845-1.337-6.761-1.924-8.35a25.184 25.184 0 0 1 2.474-.776c.359 1.577.888 4.534.941 8.398a30.48 30.48 0 0 1 1.739-.512c-.09-3.772-.602-6.651-.973-8.272a31.549 31.549 0 0 1 2.278-.352c.216 2.324.405 5.4.301 8.534a40.537 40.537 0 0 1 1.763-.339c.078-3.09-.102-6.077-.315-8.357.628-.043 1.276-.07 1.936-.083 0 0 1.358 9.339-2.253 26.414-2.528 11.936-2.423 20.867-1.48 26.121.941 5.254 4.34 10.529 9.182 10.529 3.527 0 2.925-.853 8.17-.853h.039c5.244 0 4.638.853 8.17.853 4.842 0 8.238-5.483 9.179-10.737.946-5.254 1.048-14.079-1.479-26.019-3.614-17.073-2.251-26.361-2.251-26.361.641.012 1.271.071 1.883.11-.219 2.295-.408 5.333-.325 8.468.514.087 1.11.202 1.761.345-.102-3.178.092-6.291.311-8.624.796.092 1.558.209 2.29.35-.369 1.601-.902 4.527-.99 8.372a31.16 31.16 0 0 1 1.737.512c.054-3.947.606-6.947.966-8.498.873.226 1.702.485 2.488.779-.587 1.562-1.519 4.517-1.965 8.447.577.235 1.146.354 1.703.638.388-3.993 1.3-6.914 1.868-8.415.839.393 1.625.825 2.343 1.293-.806 1.523-2.042 4.204-2.892 7.69.534.332 1.543 1.086 1.543 1.086a33.566 33.566 0 0 1 2.795-7.741 16.049 16.049 0 0 1 2.183 2.111 29.65 29.65 0 0 0-3.837 6.268c.47.451.723.706 1.091 1.235 1.232-2.54 2.896-4.658 3.949-5.868.563.888 1.02 1.814 1.358 2.766a21.453 21.453 0 0 0-4.963 4.376c-1.412-1.822-3.639-2.695-5.308-2.695-3.43 0-5.846 2.955-5.846 7.477 0 8.941 8.97 11.789 16.417 9.489 7.06-2.178 14.816-10.611 14.816-23.015-.001-12.407-4.003-22.017-14.09-31.648zM20.128 56.57c0 .247.01.51.034.771-1.647 0-2.778.116-3.522.232a9.825 9.825 0 0 1-.776-2.639c1.028.224 2.619.7 4.264 1.636zm-2.464 2.635a27.409 27.409 0 0 1 2.816-.112c.199.743.485 1.523.876 2.354-.001-.001-2.058-.277-3.692-2.242zm2.91-5.138a6.72 6.72 0 0 0-.208.643 17.217 17.217 0 0 0-4.655-1.597c-.002-.111-.002-.226-.002-.339 0-1.005.107-2.011.325-3.003a19.91 19.91 0 0 1 4.54 4.296zm60.159 2.567a15.296 15.296 0 0 1 4.25-1.611c-.17 1.038-.451 1.922-.811 2.654-.737-.121-1.853-.229-3.483-.238.03-.277.04-.543.044-.805zm4.105-6.812c.209.975.315 1.967.315 2.959 0 .141 0 .281-.005.42a17.29 17.29 0 0 0-4.643 1.569 6.259 6.259 0 0 0-.214-.691 19.896 19.896 0 0 1 4.547-4.257zm-5.332 11.634c.374-.801.65-1.553.849-2.261 1.189-.01 2.097.043 2.761.111-1.616 1.879-3.61 2.15-3.61 2.15z" style="transform: translateY(0px)"></path></g><!----><g data-v-423bf9ae="" id="196db961-89d7-4e0b-b740-ec36be42dded" fill="#2D3826" transform="matrix(1.052415530655815,0,0,1.052415530655815,127.88861477542596,56.642792569612375)"><path d="M3.35 12.07L3.35 10.98L7.71 10.98L7.71 15.68L6.62 15.68L6.62 14.50L6.45 14.50L6.45 14.50Q6.22 15.12 5.61 15.50L5.61 15.50L5.61 15.50Q5.01 15.88 4.21 15.88L4.21 15.88L4.21 15.88Q2.63 15.88 1.73 14.85L1.73 14.85L1.73 14.85Q0.83 13.83 0.83 11.87L0.83 11.87L0.83 9.69L0.83 9.69Q0.83 7.78 1.74 6.73L1.74 6.73L1.74 6.73Q2.65 5.68 4.27 5.68L4.27 5.68L4.27 5.68Q5.11 5.68 5.75 5.96L5.75 5.96L5.75 5.96Q6.40 6.23 6.83 6.71L6.83 6.71L6.83 6.71Q7.27 7.20 7.49 7.85L7.49 7.85L7.49 7.85Q7.71 8.50 7.71 9.24L7.71 9.24L7.71 9.41L6.54 9.41L6.54 9.24L6.54 9.24Q6.54 8.76 6.41 8.32L6.41 8.32L6.41 8.32Q6.27 7.87 6.00 7.53L6.00 7.53L6.00 7.53Q5.73 7.18 5.30 6.98L5.30 6.98L5.30 6.98Q4.87 6.78 4.27 6.78L4.27 6.78L4.27 6.78Q3.14 6.78 2.57 7.60L2.57 7.60L2.57 7.60Q2.00 8.43 2.00 9.77L2.00 9.77L2.00 11.79L2.00 11.79Q2.00 13.23 2.57 14.01L2.57 14.01L2.57 14.01Q3.14 14.78 4.30 14.78L4.30 14.78L4.30 14.78Q5.35 14.78 5.94 14.11L5.94 14.11L5.94 14.11Q6.54 13.44 6.54 12.24L6.54 12.24L6.54 12.07L3.35 12.07ZM16.79 15.68L16.79 5.88L17.96 5.88L17.96 14.59L23.09 14.59L23.09 15.68L16.79 15.68ZM38.21 6.97L38.21 12.74L38.21 12.74Q38.21 14.27 37.46 15.07L37.46 15.07L37.46 15.07Q36.71 15.88 35.27 15.88L35.27 15.88L35.27 15.88Q33.82 15.88 32.99 15.07L32.99 15.07L32.99 15.07Q32.16 14.27 32.16 12.74L32.16 12.74L32.16 11.98L33.33 11.98L33.33 12.74L33.33 12.74Q33.33 13.66 33.81 14.22L33.81 14.22L33.81 14.22Q34.29 14.78 35.27 14.78L35.27 14.78L35.27 14.78Q36.25 14.78 36.64 14.22L36.64 14.22L36.64 14.22Q37.03 13.66 37.03 12.74L37.03 12.74L37.03 6.97L36.02 6.97L36.02 5.88L39.05 5.88L39.05 6.97L38.21 6.97ZM47.88 6.97L47.88 5.88L54.10 5.88L54.10 6.97L51.58 6.97L51.58 14.59L54.10 14.59L54.10 15.68L47.88 15.68L47.88 14.59L50.40 14.59L50.40 6.97L47.88 6.97ZM65.42 15.68L62.65 5.88L63.91 5.88L66.47 15.18L66.64 15.18L69.20 5.88L70.46 5.88L67.69 15.68L65.42 15.68ZM79.16 15.68L79.16 5.88L85.09 5.88L85.09 6.97L80.33 6.97L80.33 10.22L85.01 10.22L85.01 11.31L80.33 11.31L80.33 14.59L85.18 14.59L85.18 15.68L79.16 15.68ZM96.71 14.90L96.71 14.90L96.71 14.90Q96.71 14.49 97.00 14.20L97.00 14.20L97.00 14.20Q97.29 13.92 97.69 13.92L97.69 13.92L97.69 13.92Q98.10 13.92 98.39 14.20L98.39 14.20L98.39 14.20Q98.67 14.49 98.67 14.90L98.67 14.90L98.67 16.27L98.67 16.27Q98.67 16.74 98.37 17.05L98.37 17.05L98.37 17.05Q98.07 17.36 97.59 17.36L97.59 17.36L96.88 17.36L96.88 16.60L97.54 16.60L97.54 16.60Q97.92 16.60 97.92 16.18L97.92 16.18L97.92 15.83L97.92 15.83Q97.80 15.88 97.68 15.88L97.68 15.88L97.68 15.88Q97.29 15.88 97.00 15.59L97.00 15.59L97.00 15.59Q96.71 15.30 96.71 14.90ZM131.14 9.21L131.14 8.71L131.14 8.71Q131.14 8.23 130.95 7.87L130.95 7.87L130.95 7.87Q130.76 7.50 130.44 7.27L130.44 7.27L130.44 7.27Q130.12 7.03 129.70 6.90L129.70 6.90L129.70 6.90Q129.28 6.78 128.81 6.78L128.81 6.78L128.81 6.78Q128.41 6.78 128.04 6.88L128.04 6.88L128.04 6.88Q127.68 6.99 127.39 7.18L127.39 7.18L127.39 7.18Q127.11 7.38 126.94 7.66L126.94 7.66L126.94 7.66Q126.77 7.95 126.77 8.33L126.77 8.33L126.77 8.41L126.77 8.41Q126.77 8.82 126.94 9.11L126.94 9.11L126.94 9.11Q127.11 9.39 127.44 9.60L127.44 9.60L127.44 9.60Q127.76 9.80 128.25 9.93L128.25 9.93L128.25 9.93Q128.74 10.07 129.40 10.16L129.40 10.16L129.40 10.16Q130.94 10.40 131.67 11.07L131.67 11.07L131.67 11.07Q132.40 11.73 132.40 12.85L132.40 12.85L132.40 13.02L132.40 13.02Q132.40 13.65 132.18 14.17L132.18 14.17L132.18 14.17Q131.96 14.70 131.54 15.08L131.54 15.08L131.54 15.08Q131.11 15.46 130.48 15.67L130.48 15.67L130.48 15.67Q129.85 15.88 129.02 15.88L129.02 15.88L129.02 15.88Q128.09 15.88 127.36 15.60L127.36 15.60L127.36 15.60Q126.64 15.33 126.16 14.85L126.16 14.85L126.16 14.85Q125.68 14.36 125.43 13.71L125.43 13.71L125.43 13.71Q125.17 13.06 125.17 12.29L125.17 12.29L125.17 11.87L126.35 11.87L126.35 12.21L126.35 12.21Q126.35 13.50 127.06 14.14L127.06 14.14L127.06 14.14Q127.76 14.78 129.02 14.78L129.02 14.78L129.02 14.78Q130.12 14.78 130.67 14.30L130.67 14.30L130.67 14.30Q131.22 13.82 131.22 13.02L131.22 13.02L131.22 12.94L131.22 12.94Q131.22 12.17 130.66 11.76L130.66 11.76L130.66 11.76Q130.09 11.35 128.81 11.17L128.81 11.17L128.81 11.17Q128.07 11.07 127.48 10.87L127.48 10.87L127.48 10.87Q126.88 10.67 126.46 10.34L126.46 10.34L126.46 10.34Q126.04 10.01 125.82 9.55L125.82 9.55L125.82 9.55Q125.59 9.09 125.59 8.46L125.59 8.46L125.59 8.29L125.59 8.29Q125.59 7.71 125.83 7.24L125.83 7.24L125.83 7.24Q126.07 6.76 126.50 6.41L126.50 6.41L126.50 6.41Q126.92 6.06 127.52 5.87L127.52 5.87L127.52 5.87Q128.11 5.68 128.83 5.68L128.83 5.68L128.83 5.68Q129.65 5.68 130.31 5.92L130.31 5.92L130.31 5.92Q130.96 6.16 131.40 6.56L131.40 6.56L131.40 6.56Q131.85 6.96 132.08 7.50L132.08 7.50L132.08 7.50Q132.31 8.04 132.31 8.62L132.31 8.62L132.31 9.21L131.14 9.21ZM129.67 3.19L130.84 3.19L129.72 4.84L127.99 4.84L126.87 3.19L128.04 3.19L128.77 4.42L128.94 4.42L129.67 3.19ZM141.04 5.88L142.21 5.88L142.21 12.38L142.21 12.38Q142.21 13.57 142.76 14.17L142.76 14.17L142.76 14.17Q143.32 14.78 144.40 14.78L144.40 14.78L144.40 14.78Q145.47 14.78 146.03 14.17L146.03 14.17L146.03 14.17Q146.58 13.57 146.58 12.38L146.58 12.38L146.58 5.88L147.76 5.88L147.76 12.38L147.76 12.38Q147.76 14.08 146.86 14.98L146.86 14.98L146.86 14.98Q145.96 15.88 144.40 15.88L144.40 15.88L144.40 15.88Q142.83 15.88 141.93 14.98L141.93 14.98L141.93 14.98Q141.04 14.08 141.04 12.38L141.04 12.38L141.04 5.88ZM156.32 15.68L156.32 5.88L158.56 5.88L159.88 15.18L160.05 15.18L161.36 5.88L163.60 5.88L163.60 15.68L162.51 15.68L162.51 6.38L162.34 6.38L161.03 15.68L158.90 15.68L157.58 6.38L157.42 6.38L157.42 15.68L156.32 15.68ZM177.84 9.21L177.84 8.71L177.84 8.71Q177.84 8.23 177.65 7.87L177.65 7.87L177.65 7.87Q177.46 7.50 177.14 7.27L177.14 7.27L177.14 7.27Q176.82 7.03 176.40 6.90L176.40 6.90L176.40 6.90Q175.98 6.78 175.52 6.78L175.52 6.78L175.52 6.78Q175.11 6.78 174.75 6.88L174.75 6.88L174.75 6.88Q174.38 6.99 174.10 7.18L174.10 7.18L174.10 7.18Q173.81 7.38 173.64 7.66L173.64 7.66L173.64 7.66Q173.47 7.95 173.47 8.33L173.47 8.33L173.47 8.41L173.47 8.41Q173.47 8.82 173.64 9.11L173.64 9.11L173.64 9.11Q173.81 9.39 174.14 9.60L174.14 9.60L174.14 9.60Q174.47 9.80 174.96 9.93L174.96 9.93L174.96 9.93Q175.45 10.07 176.11 10.16L176.11 10.16L176.11 10.16Q177.65 10.40 178.37 11.07L178.37 11.07L178.37 11.07Q179.10 11.73 179.10 12.85L179.10 12.85L179.10 13.02L179.10 13.02Q179.10 13.65 178.89 14.17L178.89 14.17L178.89 14.17Q178.67 14.70 178.24 15.08L178.24 15.08L178.24 15.08Q177.81 15.46 177.18 15.67L177.18 15.67L177.18 15.67Q176.55 15.88 175.73 15.88L175.73 15.88L175.73 15.88Q174.79 15.88 174.07 15.60L174.07 15.60L174.07 15.60Q173.35 15.33 172.87 14.85L172.87 14.85L172.87 14.85Q172.38 14.36 172.13 13.71L172.13 13.71L172.13 13.71Q171.88 13.06 171.88 12.29L171.88 12.29L171.88 11.87L173.05 11.87L173.05 12.21L173.05 12.21Q173.05 13.50 173.76 14.14L173.76 14.14L173.76 14.14Q174.47 14.78 175.73 14.78L175.73 14.78L175.73 14.78Q176.82 14.78 177.37 14.30L177.37 14.30L177.37 14.30Q177.93 13.82 177.93 13.02L177.93 13.02L177.93 12.94L177.93 12.94Q177.93 12.17 177.36 11.76L177.36 11.76L177.36 11.76Q176.79 11.35 175.52 11.17L175.52 11.17L175.52 11.17Q174.78 11.07 174.18 10.87L174.18 10.87L174.18 10.87Q173.59 10.67 173.17 10.34L173.17 10.34L173.17 10.34Q172.75 10.01 172.52 9.55L172.52 9.55L172.52 9.55Q172.30 9.09 172.30 8.46L172.30 8.46L172.30 8.29L172.30 8.29Q172.30 7.71 172.54 7.24L172.54 7.24L172.54 7.24Q172.77 6.76 173.20 6.41L173.20 6.41L173.20 6.41Q173.63 6.06 174.22 5.87L174.22 5.87L174.22 5.87Q174.82 5.68 175.53 5.68L175.53 5.68L175.53 5.68Q176.36 5.68 177.01 5.92L177.01 5.92L177.01 5.92Q177.66 6.16 178.11 6.56L178.11 6.56L178.11 6.56Q178.56 6.96 178.79 7.50L178.79 7.50L178.79 7.50Q179.02 8.04 179.02 8.62L179.02 8.62L179.02 9.21L177.84 9.21ZM189.24 11.31L189.24 15.68L188.06 15.68L188.06 5.88L189.24 5.88L189.24 10.22L189.56 10.22L193.33 5.88L194.78 5.88L194.78 5.96L190.72 10.70L190.72 10.86L194.95 15.60L194.95 15.68L193.47 15.68L189.56 11.31L189.24 11.31ZM203.22 11.87L203.22 9.69L203.22 9.69Q203.22 7.78 204.13 6.73L204.13 6.73L204.13 6.73Q205.04 5.68 206.67 5.68L206.67 5.68L206.67 5.68Q208.29 5.68 209.20 6.73L209.20 6.73L209.20 6.73Q210.11 7.78 210.11 9.69L210.11 9.69L210.11 11.87L210.11 11.87Q210.11 13.83 209.20 14.85L209.20 14.85L209.20 14.85Q208.29 15.88 206.67 15.88L206.67 15.88L206.67 15.88Q205.04 15.88 204.13 14.85L204.13 14.85L204.13 14.85Q203.22 13.83 203.22 11.87L203.22 11.87ZM206.67 14.78L206.67 14.78L206.67 14.78Q207.80 14.78 208.37 14.01L208.37 14.01L208.37 14.01Q208.94 13.23 208.94 11.79L208.94 11.79L208.94 9.77L208.94 9.77Q208.94 8.43 208.37 7.60L208.37 7.60L208.37 7.60Q207.80 6.78 206.67 6.78L206.67 6.78L206.67 6.78Q205.53 6.78 204.97 7.60L204.97 7.60L204.97 7.60Q204.40 8.43 204.40 9.77L204.40 9.77L204.40 11.79L204.40 11.79Q204.40 13.23 204.97 14.01L204.97 14.01L204.97 14.01Q205.53 14.78 206.67 14.78ZM234.16 15.68L234.16 5.88L236.40 5.88L237.72 15.18L237.89 15.18L239.20 5.88L241.44 5.88L241.44 15.68L240.35 15.68L240.35 6.38L240.18 6.38L238.87 15.68L236.74 15.68L235.42 6.38L235.26 6.38L235.26 15.68L234.16 15.68ZM250.40 15.68L250.40 5.88L256.34 5.88L256.34 6.97L251.58 6.97L251.58 10.22L256.26 10.22L256.26 11.31L251.58 11.31L251.58 14.59L256.42 14.59L256.42 15.68L250.40 15.68ZM271.25 9.21L271.25 8.71L271.25 8.71Q271.25 8.23 271.06 7.87L271.06 7.87L271.06 7.87Q270.87 7.50 270.55 7.27L270.55 7.27L270.55 7.27Q270.23 7.03 269.81 6.90L269.81 6.90L269.81 6.90Q269.39 6.78 268.93 6.78L268.93 6.78L268.93 6.78Q268.52 6.78 268.16 6.88L268.16 6.88L268.16 6.88Q267.79 6.99 267.51 7.18L267.51 7.18L267.51 7.18Q267.22 7.38 267.05 7.66L267.05 7.66L267.05 7.66Q266.88 7.95 266.88 8.33L266.88 8.33L266.88 8.41L266.88 8.41Q266.88 8.82 267.05 9.11L267.05 9.11L267.05 9.11Q267.22 9.39 267.55 9.60L267.55 9.60L267.55 9.60Q267.88 9.80 268.37 9.93L268.37 9.93L268.37 9.93Q268.86 10.07 269.51 10.16L269.51 10.16L269.51 10.16Q271.05 10.40 271.78 11.07L271.78 11.07L271.78 11.07Q272.51 11.73 272.51 12.85L272.51 12.85L272.51 13.02L272.51 13.02Q272.51 13.65 272.29 14.17L272.29 14.17L272.29 14.17Q272.08 14.70 271.65 15.08L271.65 15.08L271.65 15.08Q271.22 15.46 270.59 15.67L270.59 15.67L270.59 15.67Q269.96 15.88 269.14 15.88L269.14 15.88L269.14 15.88Q268.20 15.88 267.48 15.60L267.48 15.60L267.48 15.60Q266.76 15.33 266.27 14.85L266.27 14.85L266.27 14.85Q265.79 14.36 265.54 13.71L265.54 13.71L265.54 13.71Q265.29 13.06 265.29 12.29L265.29 12.29L265.29 11.87L266.46 11.87L266.46 12.21L266.46 12.21Q266.46 13.50 267.17 14.14L267.17 14.14L267.17 14.14Q267.88 14.78 269.14 14.78L269.14 14.78L269.14 14.78Q270.23 14.78 270.78 14.30L270.78 14.30L270.78 14.30Q271.33 13.82 271.33 13.02L271.33 13.02L271.33 12.94L271.33 12.94Q271.33 12.17 270.77 11.76L270.77 11.76L270.77 11.76Q270.20 11.35 268.93 11.17L268.93 11.17L268.93 11.17Q268.18 11.07 267.59 10.87L267.59 10.87L267.59 10.87Q266.99 10.67 266.57 10.34L266.57 10.34L266.57 10.34Q266.15 10.01 265.93 9.55L265.93 9.55L265.93 9.55Q265.71 9.09 265.71 8.46L265.71 8.46L265.71 8.29L265.71 8.29Q265.71 7.71 265.94 7.24L265.94 7.24L265.94 7.24Q266.18 6.76 266.61 6.41L266.61 6.41L266.61 6.41Q267.04 6.06 267.63 5.87L267.63 5.87L267.63 5.87Q268.23 5.68 268.94 5.68L268.94 5.68L268.94 5.68Q269.77 5.68 270.42 5.92L270.42 5.92L270.42 5.92Q271.07 6.16 271.52 6.56L271.52 6.56L271.52 6.56Q271.96 6.96 272.20 7.50L272.20 7.50L272.20 7.50Q272.43 8.04 272.43 8.62L272.43 8.62L272.43 9.21L271.25 9.21ZM281.06 11.87L281.06 9.69L281.06 9.69Q281.06 7.78 281.97 6.73L281.97 6.73L281.97 6.73Q282.88 5.68 284.51 5.68L284.51 5.68L284.51 5.68Q286.13 5.68 287.04 6.73L287.04 6.73L287.04 6.73Q287.95 7.78 287.95 9.69L287.95 9.69L287.95 11.87L287.95 11.87Q287.95 13.83 287.04 14.85L287.04 14.85L287.04 14.85Q286.13 15.88 284.51 15.88L284.51 15.88L284.51 15.88Q282.88 15.88 281.97 14.85L281.97 14.85L281.97 14.85Q281.06 13.83 281.06 11.87L281.06 11.87ZM284.51 14.78L284.51 14.78L284.51 14.78Q285.64 14.78 286.21 14.01L286.21 14.01L286.21 14.01Q286.78 13.23 286.78 11.79L286.78 11.79L286.78 9.77L286.78 9.77Q286.78 8.43 286.21 7.60L286.21 7.60L286.21 7.60Q285.64 6.78 284.51 6.78L284.51 6.78L284.51 6.78Q283.37 6.78 282.81 7.60L282.81 7.60L282.81 7.60Q282.24 8.43 282.24 9.77L282.24 9.77L282.24 11.79L282.24 11.79Q282.24 13.23 282.81 14.01L282.81 14.01L282.81 14.01Q283.37 14.78 284.51 14.78Z" style="transform: scale(1.2) translate(3px, 20px);"></path></g></svg>