<?xml version="1.0" encoding="utf-8"?>
<svg viewBox="0.063 0 61.875 90" xmlns="http://www.w3.org/2000/svg" xmlns:bx="https://boxy-svg.com">
  <g data-v-423bf9ae="" id="f15003ef-b47d-46ce-a990-864e1cd28cd9" transform="matrix(1.40625, 0, 0, 1.40625, -39.3125, -25.3125)" stroke="none">
    <path d="M30 24c0 2.2 1.8 4 4 4v2c-3.3 0-6 2.7-6 6v42c0 2.2 1.8 4 4 4h36c2.2 0 4-1.8 4-4V36c0-3.3-2.7-6-6-6v-2c2.2 0 4-1.8 4-4v-2c0-2.2-1.8-4-4-4H34c-2.2 0-4 1.8-4 4v2zm0 12c0-2.2 1.8-4 4-4 1.1 0 2-.9 2-2v-2h28v2c0 1.1.9 2 2 2 2.2 0 4 1.8 4 4v42c0 1.1-.9 2-2 2H32c-1.1 0-2-.9-2-2V36zm26 4c0-3.3-2.7-6-6-6s-6 2.7-6 6h-8c-1.1 0-2 .9-2 2v30h32V42c0-1.1-.9-2-2-2h-8zm8 2v28H36V42h8c1.1 0 2-.9 2-2 0-2.2 1.8-4 4-4s4 1.8 4 4c0 1.1.9 2 2 2h8zm4-18c0 1.1-.9 2-2 2H34c-1.1 0-2-.9-2-2v-2c0-1.1.9-2 2-2h32c1.1 0 2 .9 2 2v2z"/>
  </g>
  <ellipse style="stroke: rgb(0, 0, 0); fill: rgba(216, 216, 216, 0);" cx="31.214" cy="53.46" rx="10.807" ry="10.725"/>
  <ellipse style="stroke: rgb(0, 0, 0); fill: rgba(216, 216, 216, 0);" cx="31.068" cy="53.495" rx="5.421" ry="10.675"/>
  <path style="fill: rgb(216, 216, 216); stroke: rgb(0, 0, 0);" d="M 20.097 53.212 L 42.209 53.442"/>
  <path style="fill: rgb(216, 216, 216); stroke: rgb(0, 0, 0);" d="M 31.294 42.828 L 31.007 63.948"/>
  <path style="stroke: rgb(0, 0, 0); fill: rgba(216, 216, 216, 0);" d="M 39.1 60.905 L 37.768166666666666 60.286833333333334 C 36.43633333333333 59.66866666666667 33.77266666666667 58.43233333333333 31.127 58.398999999999994 C 28.481333333333335 58.36566666666666 25.85366666666667 59.535333333333334 24.539833333333334 60.120166666666655 L 23.226 60.705" bx:d="M 39.1 60.905 U 31.109 57.196 U 23.226 60.705 1@174686ee"/>
  <path style="stroke: rgb(0, 0, 0); fill: rgba(216, 216, 216, 0);" d="M 39.256 46.037 L 37.92416666666667 46.83283333333333 C 36.592333333333336 47.62866666666667 33.928666666666665 49.220333333333336 31.283 49.26316666666667 C 28.637333333333334 49.306000000000004 26.009666666666664 47.79999999999999 24.695833333333336 47.047 L 23.382 46.294" bx:d="M 39.256 46.037 U 31.265 50.812 U 23.382 46.294 1@74ecce88"/>
</svg>