<svg data-v-423bf9ae="" xmlns="http://www.w3.org/2000/svg" width="62px" height="90px" viewBox="0 0 90 auto" >

<!----><!----><!---->
<g data-v-423bf9ae="" id="f15003ef-b47d-46ce-a990-864e1cd28cd9" transform="matrix(1.40625,0,0,1.40625,-39.3125,-25.3125)" stroke="none"  ><path  d="M30 24c0 2.2 1.8 4 4 4v2c-3.3 0-6 2.7-6 6v42c0 2.2 1.8 4 4 4h36c2.2 0 4-1.8 4-4V36c0-3.3-2.7-6-6-6v-2c2.2 0 4-1.8 4-4v-2c0-2.2-1.8-4-4-4H34c-2.2 0-4 1.8-4 4v2zm0 12c0-2.2 1.8-4 4-4 1.1 0 2-.9 2-2v-2h28v2c0 1.1.9 2 2 2 2.2 0 4 1.8 4 4v42c0 1.1-.9 2-2 2H32c-1.1 0-2-.9-2-2V36zm26 4c0-3.3-2.7-6-6-6s-6 2.7-6 6h-8c-1.1 0-2 .9-2 2v30h32V42c0-1.1-.9-2-2-2h-8zm8 2v28H36V42h8c1.1 0 2-.9 2-2 0-2.2 1.8-4 4-4s4 1.8 4 4c0 1.1.9 2 2 2h8zm4-18c0 1.1-.9 2-2 2H34c-1.1 0-2-.9-2-2v-2c0-1.1.9-2 2-2h32c1.1 0 2 .9 2 2v2z"></path></g><!----></svg>