<svg data-v-423bf9ae="" xmlns="http://www.w3.org/2000/svg" viewBox="0 0 742 90" class="iconLeft"><!----><!----><!---->
<g data-v-423bf9ae="" id="198c5eaf-0a4b-4b03-abf0-860c89ff11a9"  transform="matrix(5.813953660298242,0,0,5.813953660298242,80.18893858204206,12.558141213387906)"><path d="M8.90 0.70C7.29 0.70 5.70 0.70 4.10 0.70L4.10 2.42L7.06 2.42L7.06 6.31C7.06 7.80 6.27 8.96 4.59 8.96C2.93 8.96 2.11 8.11 2.11 6.43L0.29 6.43C0.29 9.20 2.09 10.70 4.59 10.70C7.29 10.70 8.90 8.85 8.90 6.31L8.90 0.70ZM15.64 4.55C15.25 3.86 14.36 3.43 13.44 3.43C11.42 3.42 9.84 4.66 9.84 7.04C9.84 9.46 11.35 10.72 13.40 10.71C14.17 10.70 15.25 10.30 15.64 9.49L15.72 10.50L17.33 10.50L17.33 3.60L15.69 3.60ZM13.59 4.96C16.28 4.96 16.28 9.14 13.59 9.14C12.46 9.14 11.55 8.36 11.55 7.04C11.55 5.73 12.46 4.96 13.59 4.96ZM25.07 10.50L25.07 6.80C25.07 5.89 25.65 5.10 26.57 5.10C27.50 5.10 27.87 5.87 27.87 6.78L27.87 10.50L29.58 10.50L29.58 6.78C29.58 4.70 28.62 3.50 26.66 3.50C25.76 3.50 24.96 3.78 24.35 4.76C23.95 3.81 23.13 3.47 22.30 3.47C21.64 3.47 20.85 3.72 20.48 4.42L20.36 3.58L18.77 3.58L18.77 10.50L20.48 10.50L20.48 6.80C20.48 5.89 21.03 5.07 21.95 5.07C22.89 5.07 23.37 5.89 23.37 6.80L23.37 10.50ZM36.78 4.31C35.98 3.61 35.17 3.40 34.09 3.40C32.83 3.40 31.18 3.96 31.18 5.56C31.18 7.13 32.73 7.60 34.03 7.70C35.01 7.76 35.41 7.95 35.41 8.43C35.41 8.93 34.80 9.27 34.16 9.25C33.39 9.24 32.27 8.83 31.78 8.29L30.94 9.51C31.95 10.56 33.04 10.74 34.13 10.74C36.11 10.74 37.10 9.69 37.10 8.47C37.10 6.64 35.45 6.34 34.15 6.26C33.26 6.20 32.86 5.95 32.86 5.50C32.86 5.07 33.31 4.82 34.12 4.82C34.78 4.82 35.34 4.97 35.83 5.43ZM38.89 1.83L38.89 3.61L37.60 3.61L37.60 5.08L38.89 5.08L38.89 8.06C38.89 9.79 39.87 10.64 41.37 10.58C41.89 10.57 42.29 10.49 42.78 10.29L42.31 8.83C42.06 8.96 41.75 9.04 41.48 9.04C40.95 9.04 40.59 8.72 40.59 8.06L40.59 5.08L42.50 5.08L42.50 3.61L40.60 3.61L40.60 1.65ZM49.20 4.55C48.80 3.86 47.92 3.43 47.00 3.43C44.98 3.42 43.40 4.66 43.40 7.04C43.40 9.46 44.91 10.72 46.96 10.71C47.73 10.70 48.80 10.30 49.20 9.49L49.28 10.50L50.89 10.50L50.89 3.60L49.25 3.60ZM47.15 4.96C49.84 4.96 49.84 9.14 47.15 9.14C46.02 9.14 45.11 8.36 45.11 7.04C45.11 5.73 46.02 4.96 47.15 4.96ZM57.26 8.50C56.84 8.92 56.29 9.07 55.75 9.07C54.68 9.07 53.79 8.37 53.79 7.06C53.79 5.85 54.63 5.01 55.78 5.01C56.25 5.01 56.76 5.19 57.16 5.56L58.24 4.42C57.48 3.68 56.73 3.40 55.75 3.40C53.75 3.40 52.08 4.61 52.08 7.06C52.08 9.51 53.75 10.71 55.75 10.71C56.77 10.71 57.61 10.40 58.41 9.62ZM59.12 0.71L59.12 10.50L60.83 10.50L60.83 7.38L63.53 10.50L65.59 10.50L65.59 10.37L62.38 6.85L65.20 3.70L65.20 3.60L63.15 3.60L60.83 6.37L60.83 0.71ZM77.76 1.92C76.75 0.92 75.43 0.42 74.12 0.42C70.66 0.42 68.94 2.97 68.94 5.73C68.94 8.30 70.43 10.72 74.12 10.72C75.84 10.72 77.06 10.07 78.02 8.96L78.02 4.83L73.82 4.83L73.82 6.48L76.33 6.48L76.33 8.22C75.56 8.83 74.89 9.00 74.12 9.00C71.68 9.00 70.74 7.34 70.74 5.73C70.74 3.71 72.02 2.11 74.12 2.11C74.97 2.11 75.95 2.46 76.61 3.09ZM79.45 3.60L79.45 7.22C79.45 9.37 80.65 10.61 82.31 10.61C83.27 10.61 83.93 10.28 84.64 9.58L84.76 10.51L86.28 10.51L86.28 3.60L84.59 3.60L84.59 7.13C84.59 8.18 83.87 9.06 82.82 9.06C81.73 9.06 81.16 8.26 81.16 7.21L81.16 3.60ZM89.50 3.57L89.50 10.50L87.79 10.50L87.79 3.57ZM87.64 1.65C87.64 2.98 89.66 2.98 89.66 1.65C89.66 0.32 87.64 0.32 87.64 1.65ZM94.39 5.03C95.47 5.03 96.39 5.84 96.39 7.04C96.39 8.29 95.47 9.07 94.39 9.07C93.30 9.07 92.43 8.25 92.43 7.04C92.43 5.80 93.30 5.03 94.39 5.03ZM96.50 0.71L96.50 4.54C96.10 3.82 94.96 3.43 94.23 3.43C92.22 3.43 90.72 4.66 90.72 7.04C90.72 9.31 92.25 10.65 94.28 10.65C95.12 10.65 95.97 10.37 96.50 9.55L96.61 10.50L98.21 10.50L98.21 0.71ZM106.69 7.66C106.96 4.82 105.52 3.39 103.21 3.39C100.97 3.39 99.54 4.90 99.54 7C99.54 9.21 100.95 10.68 103.33 10.68C104.38 10.68 105.57 10.32 106.30 9.56L105.21 8.48C104.82 8.89 103.99 9.13 103.36 9.13C102.16 9.13 101.42 8.51 101.30 7.66ZM101.33 6.24C101.58 5.35 102.34 4.90 103.26 4.90C104.24 4.90 104.94 5.35 105.06 6.24ZM113.47 4.31C112.67 3.61 111.86 3.40 110.78 3.40C109.52 3.40 107.87 3.96 107.87 5.56C107.87 7.13 109.42 7.60 110.73 7.70C111.71 7.76 112.10 7.95 112.10 8.43C112.10 8.93 111.50 9.27 110.85 9.25C110.08 9.24 108.96 8.83 108.47 8.29L107.63 9.51C108.64 10.56 109.73 10.74 110.82 10.74C112.80 10.74 113.79 9.69 113.79 8.47C113.79 6.64 112.14 6.34 110.84 6.26C109.96 6.20 109.55 5.95 109.55 5.50C109.55 5.07 110.00 4.82 110.81 4.82C111.47 4.82 112.03 4.97 112.52 5.43Z"></path></g>
<g data-v-423bf9ae="" id="f15003ef-b47d-46ce-a990-864e1cd28cd9" transform="matrix(1.40625,0,0,1.40625,-39.3125,-25.3125)" stroke="none" ><path d="M30 24c0 2.2 1.8 4 4 4v2c-3.3 0-6 2.7-6 6v42c0 2.2 1.8 4 4 4h36c2.2 0 4-1.8 4-4V36c0-3.3-2.7-6-6-6v-2c2.2 0 4-1.8 4-4v-2c0-2.2-1.8-4-4-4H34c-2.2 0-4 1.8-4 4v2zm0 12c0-2.2 1.8-4 4-4 1.1 0 2-.9 2-2v-2h28v2c0 1.1.9 2 2 2 2.2 0 4 1.8 4 4v42c0 1.1-.9 2-2 2H32c-1.1 0-2-.9-2-2V36zm26 4c0-3.3-2.7-6-6-6s-6 2.7-6 6h-8c-1.1 0-2 .9-2 2v30h32V42c0-1.1-.9-2-2-2h-8zm8 2v28H36V42h8c1.1 0 2-.9 2-2 0-2.2 1.8-4 4-4s4 1.8 4 4c0 1.1.9 2 2 2h8zm4-18c0 1.1-.9 2-2 2H34c-1.1 0-2-.9-2-2v-2c0-1.1.9-2 2-2h32c1.1 0 2 .9 2 2v2z"></path></g><!----></svg>